<svg xmlns="http://www.w3.org/2000/svg" xmlns:xlink="http://www.w3.org/1999/xlink" version="1.1" width="1000" height="1000" viewBox="0 0 1000 1000" xml:space="preserve">
<desc>Created with Fabric.js 3.5.0</desc>
<defs>
</defs>
<rect x="0" y="0" width="100%" height="100%" fill="#ffffff"/>
<g transform="matrix(1.6186 0 0 1.6186 500.0038 500.0037)" id="84160">
<path style="stroke: none; stroke-width: 1; stroke-dasharray: none; stroke-linecap: butt; stroke-dashoffset: 0; stroke-linejoin: miter; stroke-miterlimit: 4; is-custom-font: none; font-file-url: none; fill: rgb(0,0,0); fill-rule: nonzero; opacity: 1;" vector-effect="non-scaling-stroke" transform=" translate(-402.6066, -513.2471)" d="M 617.72583 744.715088 C 643.39856 727.466797 657.919922 703.090515 665.615051 674.091187 C 668.218628 664.279541 671.083374 654.531494 673.417542 644.657104 C 674.330994 640.792908 676.498718 640.602051 679.602417 640.772827 C 683.079285 640.964172 683.659912 642.947205 683.370422 645.828247 C 681.956787 659.898804 680.745178 673.992065 679.136963 688.0401 C 677.018127 706.547668 674.531555 725.013 672.361023 743.514954 C 671.944519 747.064758 670.307922 749.116211 667.224854 750.787231 C 640.488037 765.278625 611.582581 772.709656 581.787659 777.284729 C 547.904541 782.487549 513.750854 783.565979 479.620148 782.109436 C 446.021454 780.67572 413.895599 772.070374 383.357086 757.867249 C 377.772919 755.27002 372.204254 752.565247 366.925934 749.41217 C 363.680206 747.473389 360.754059 747.305908 357.530884 748.75946 C 353.889008 750.401733 350.101868 751.827576 346.704895 753.886963 C 337.005096 759.767334 326.558075 760.751465 315.459991 760.344666 C 283.29483 759.16571 256.378174 746.052856 232.376465 725.509094 C 222.493164 717.049683 213.039169 708.141663 203.463745 699.356689 C 195.282227 691.850708 188.909256 682.905151 183.214859 673.448303 C 182.189728 671.745911 180.906738 669.780884 182.906845 668.040466 C 184.744995 666.440918 186.341293 668.056946 187.779358 669.088379 C 190.215622 670.835693 192.752701 672.510803 194.906601 674.572327 C 208.523834 687.605896 225.085953 693.768372 243.517197 695.468018 C 256.119598 696.630249 268.492126 699.404236 281.129578 700.399353 C 288.44342 700.975403 295.622894 698.612427 302.5737 700.832886 C 303.608185 698.485779 302.424408 697.556946 301.665222 696.544434 C 300.466431 694.945435 298.915131 693.564758 297.945374 691.847534 C 291.35376 680.175598 280.088348 675.026428 268.426941 670.336426 C 266.190735 669.437073 264.643524 669.14325 262.849304 671.407593 C 256.229523 679.76178 247.527924 682.799927 237.100159 680.536499 C 225.655502 678.052246 218.913513 670.654968 215.900833 659.626953 C 213.331909 650.223145 216.09407 644.296509 224.836609 639.95105 C 238.674408 633.072998 254.72113 638.774109 260.395386 652.58429 C 264.541107 662.674316 268.567902 666.158264 280.638367 669.748657 C 277.33252 664.071228 274.321381 658.755737 271.17099 653.524109 C 266.775818 646.225281 263.062683 638.5755 259.783722 630.742615 C 257.900513 626.243958 254.784653 623.830261 250.202148 623.003845 C 243.163544 621.734375 236.021042 620.908569 229.085785 619.223145 C 207.003967 613.856628 187.881805 603.419861 171.025101 587.775818 C 147.807968 566.22876 138.606537 537.14502 126.196777 509.687103 C 124.558823 506.062927 123.570908 502.145142 122.27784 498.364777 C 121.592751 496.361847 121.365723 494.422363 123.229919 492.887482 C 124.975433 491.450287 126.915596 491.535126 128.879196 492.362152 C 131.530151 493.478638 133.770828 495.206635 135.796082 497.212585 C 144.796951 506.127594 155.007812 513.844543 163.806808 522.783081 C 173.810577 532.945435 185.304138 540.287659 197.04277 547.873474 C 216.092239 560.183777 230.449829 576.776428 238.714691 598.260376 C 241.122055 604.518127 245.307541 609.504272 250.804321 613.636475 C 252.57724 611.021606 251.5224 609.164856 251.003952 607.30957 C 249.078751 600.420288 247.131607 593.53717 245.190979 586.652161 C 242.372314 576.6521 235.752625 568.726868 230.442719 560.129944 C 222.199295 546.783569 212.277878 534.714172 201.830399 522.966492 C 192.324036 512.276978 187.222275 498.809509 182.080444 485.602386 C 173.961441 464.748047 174.100098 443.963318 183.530746 423.526947 C 187.634247 414.634583 187.524948 405.071106 188.671326 395.703674 C 190.833206 378.038574 192.792328 360.338501 197.745285 343.170898 C 198.618408 340.144531 198.835129 335.197693 202.67215 335.420135 C 206.791077 335.658936 206.389801 340.775269 207.10228 343.972015 C 209.026505 352.605743 209.039673 361.472931 209.712982 370.26062 C 210.668167 382.727203 216.086807 393.989807 219.632797 405.750458 C 224.323013 421.306 225.315781 437.157898 223.696411 453.186432 C 221.163101 478.260864 219.235825 503.316772 224.354034 528.290405 C 226.59436 539.221863 229.189529 550.097656 235.85231 559.420288 C 236.791 560.733765 237.514343 562.353333 239.97876 562.945984 C 241.088287 557.955505 239.654465 553.103149 239.360016 548.33429 C 238.207947 529.676453 238.202026 511.072052 240.410522 492.482941 C 240.841171 488.858154 241.013443 485.153381 240.81691 481.511841 C 239.931824 465.112091 242.266602 448.951782 244.307785 432.779175 C 245.496887 423.357849 243.795746 414.149017 242.561264 404.954803 C 241.241302 395.124023 242.7034 385.792023 245.11087 376.349915 C 248.685684 362.329559 251.195267 348.038147 255.623291 334.232544 C 260.498108 319.033905 268.110413 305.628387 280.677734 295.28714 C 287.272766 289.86026 290.403473 281.827972 294.430237 274.595673 C 299.287415 265.871887 303.492035 256.784027 307.947876 247.838226 C 309.013947 245.697968 310.030365 243.312683 312.950806 243.873428 C 316.356781 244.527374 315.431305 247.551239 315.184875 249.601913 C 314.054016 259.011871 312.753021 268.405396 311.295074 277.770905 C 309.56488 288.885193 310.089111 300.05072 310.412598 311.191864 C 310.72113 321.818878 309.660889 332.133789 305.350616 341.990906 C 305.678589 342.280365 306.006592 342.569824 306.334595 342.859283 C 307.513306 341.455811 308.639191 340.003784 309.87854 338.656067 C 333.14624 313.354858 359.774017 292.563812 391.243347 278.343292 C 418.237061 266.145233 446.53952 259.336456 476.132294 257.616577 C 508.486511 255.736267 540.682312 258.034607 572.894836 260.551514 C 606.105347 263.146362 639.025574 267.861816 671.781677 273.771179 C 680.92157 275.420074 679.446716 274.028168 679.355591 283.103821 C 679.042786 314.261017 678.629456 345.417145 678.248901 376.573669 C 678.232605 377.905762 678.182251 379.238342 678.110779 380.568695 C 678.014709 382.356262 676.955872 383.165863 675.268311 383.487091 C 673.354065 383.85144 671.953918 383.353424 671.293274 381.447845 C 670.694092 379.719574 670.200256 377.954926 669.65155 376.208984 C 655.522583 331.250153 626.729065 299.889526 582.793335 282.592651 C 558.828491 273.15802 533.865051 269.172668 508.208923 267.94278 C 458.537445 265.561646 414.100922 279.698029 374.710846 309.570282 C 342.745575 333.811798 320.907379 366.042328 304.331055 402.116455 C 295.311157 421.74588 289.390961 442.344391 285.603699 463.575409 C 285.229065 465.675415 285.249908 467.845978 285.033356 470.691162 C 287.218781 469.24704 287.413269 467.434357 288.019073 465.89328 C 295.049713 448.00827 304.622833 431.770935 318.729065 418.467865 C 325.125244 412.435913 332.409424 407.891083 340.807159 405.173065 C 354.98999 400.582672 367.961029 393.32431 381.242188 386.750427 C 382.58606 386.085297 383.907562 385.37262 385.268463 384.744873 C 386.813904 384.032013 388.515381 383.302612 389.841492 384.93338 C 391.292572 386.717834 389.690582 388.037506 388.714447 389.286377 C 376.616486 404.764404 364.924866 420.5401 351.752899 435.192139 C 342.63736 445.33194 334.166748 456.022186 324.484558 465.704346 C 317.155273 473.033691 308.474152 477.391968 298.947205 480.77243 C 278.538513 488.01413 283.019653 484.426422 282.165466 504.205078 C 282.118103 505.301697 281.851929 506.541199 283.049438 507.699951 C 287.102203 505.679688 290.662567 502.618195 295.027344 500.978394 C 308.147278 496.049255 316.410736 500.495605 319.332489 514.198547 C 323.808472 535.190857 309.51828 550.93335 287.993683 548.626831 C 282.65274 548.054565 284.28067 551.841797 284.579346 554.210632 C 286.64151 570.567078 289.859253 586.713989 294.407806 602.561096 C 301.709503 627.999817 311.786224 652.216309 326.761993 674.200134 C 327.647949 675.500671 328.137115 677.233459 330.202972 677.808167 C 331.399597 672.654175 330.153076 667.89801 328.546448 663.188538 C 324.863159 652.391663 318.475433 642.92981 313.475525 632.782227 C 307.732819 621.127075 306.556793 609.294495 309.375153 596.436035 C 316.342194 564.649292 326.743774 533.915283 336.698425 503.031006 C 337.615662 500.185242 338.929016 497.468018 340.038818 494.683258 C 346.565765 478.305908 356.176636 464.471405 371.973572 455.663818 C 377.958435 452.326965 382.281128 447.328186 385.716309 441.469299 C 387.154968 439.015564 389.035645 436.877899 391.224884 435.046387 C 392.728088 433.788849 394.501587 433.175659 396.32373 434.085297 C 398.423492 435.133575 397.956085 437.037262 397.588837 438.905212 C 396.193329 446.003632 393.783783 452.713623 389.925354 458.845581 C 387.441467 462.79306 385.142975 466.935944 382.144836 470.467804 C 366.535522 488.856079 363.57962 510.261322 365.90451 533.36145 C 368.112762 555.302124 368.214447 577.24353 362.485321 598.852722 C 360.580627 606.037109 357.221161 612.49231 353.685181 618.918701 C 348.603424 628.154663 344.446686 637.746521 342.376831 648.160278 C 341.958191 650.266541 341.537415 652.564941 340.398254 654.303284 C 334.304535 663.602661 336.268433 673.88739 336.528656 683.941223 C 336.627258 687.751953 338.849243 690.72699 341.260742 693.607788 C 373.790283 732.468689 415.282623 755.974365 464.793884 765.635864 C 504.098145 773.305664 543.202148 773.336731 581.879211 761.733826 C 594.566833 757.927673 606.45459 752.372009 617.72583 744.715088 M 291.58255 749.831787 C 313.562286 753.810425 335.611115 758.533813 355.770752 743.574341 C 353.458893 740.74054 350.021576 739.903809 346.346344 739.295776 C 333.234222 737.126526 320.037445 735.296021 307.678802 729.951233 C 298.948151 726.175537 289.928131 723.455566 280.448761 722.129333 C 258.346649 719.037292 237.220871 712.9151 217.958145 701.237732 C 216.523956 700.368347 215.055405 698.868652 212.947647 699.846375 C 212.933777 702.11731 214.824783 702.924927 216.112015 704.061829 C 219.851898 707.364868 223.669952 710.582458 227.522278 713.7547 C 246.518921 729.396912 266.376984 743.533691 291.58255 749.831787 M 315.959503 607.491882 C 316.220154 624.577881 320.800629 638.758911 327.126251 641.97876 C 328.297638 640.645325 328.474762 638.966736 328.567566 637.327881 C 329.460052 621.565857 333.325684 606.497314 338.82196 591.757568 C 341.686096 584.076599 342.909393 576.243958 342.186401 567.823242 C 340.831787 552.045044 341.487244 536.206787 344.336578 520.578857 C 347.560547 502.896362 355.758362 487.321533 365.491425 472.460205 C 368.067902 468.526215 370.658447 464.601471 373.945465 459.603729 C 361.339355 468.151276 354.864471 475.973297 348.503326 491.207458 C 339.45343 512.880981 332.700195 535.355652 325.924042 557.817566 C 321.115784 573.756104 316.036926 589.612244 315.959503 607.491882 M 297.331604 287.984528 C 297.493347 285.438446 299.312805 283.101624 298.613831 280.485321 C 297.46524 280.218109 296.961395 280.776642 296.709564 281.3461 C 292.556946 290.736664 285.101135 297.485291 278.167633 304.658966 C 274.782166 308.161682 272.268097 312.239044 270.12973 316.621063 C 258.279083 340.905731 255.30542 367.590179 249.359756 393.460632 C 248.315353 398.004974 247.222809 402.835876 249.160126 407.675201 C 251.220078 406.805206 251.321594 404.983276 251.949997 403.517944 C 259.115479 386.80899 266.935272 370.433044 277.572205 355.601379 C 283.59729 347.200287 287.747437 338.041809 289.727844 327.944611 C 292.285339 314.904907 294.624359 301.822357 297.331604 287.984528 M 344.851105 590.070923 C 338.276123 607.952026 333.906891 626.206543 335.288452 645.490723 C 339.385468 632.130554 346.355621 620.177979 352.395538 607.798096 C 353.841858 604.833618 354.739532 601.569275 355.62912 598.370483 C 361.593994 576.922058 360.027344 555.11676 358.227142 533.382751 C 356.585297 513.560547 358.988983 494.907532 370.71579 478.140747 C 375.050995 471.942383 378.742126 465.293549 382.72702 458.850159 C 377.651672 462.616577 374.285156 467.708435 370.967194 472.744781 C 356.431152 494.808868 346.20401 518.18689 347.164459 545.515442 C 347.676605 560.088318 348.746246 574.834534 344.851105 590.070923 M 216.517273 486.08078 C 217.143936 478.126923 217.923264 470.18158 218.365814 462.217499 C 219.317688 445.088287 220.250626 427.906158 215.007324 411.214081 C 209.783569 394.584259 202.781296 378.384796 203.678375 360.362427 C 203.107452 368.150787 201.9953 375.834717 202.411438 383.627167 C 203.094162 396.412354 203.791016 409.207275 203.969955 422.00528 C 204.090561 430.629761 203.324142 439.239532 201.714127 447.788055 C 200.427414 454.620026 199.436127 461.558105 201.040466 468.576172 C 204.492371 483.676392 209.891785 498.179626 214.494202 512.926147 C 215.000168 514.547302 216.151047 515.967285 217.002808 517.48053 C 217.305862 507.132141 214.97847 497.132477 216.517273 486.08078 M 204.321869 498.0271 C 202.082245 490.885773 199.859497 483.739136 197.598465 476.604584 C 195.10463 468.735474 194.093384 460.846832 195.427475 452.526764 C 196.687317 444.669739 197.077423 436.664551 197.67131 428.711182 C 199.036209 410.432587 196.019043 392.150085 197.636841 373.861481 C 197.859116 371.348633 197.66748 368.799225 197.66748 366.266724 C 196.485062 370.483948 195.737198 374.718048 195.213943 378.979706 C 192.950089 397.417999 191.848846 415.992493 184.240814 433.4711 C 180.451279 442.177124 179.042297 451.961945 180.668427 461.417084 C 184.927429 486.181305 195.135956 508.349152 211.595001 527.491272 C 212.512619 528.558472 213.255447 530.042419 215.692123 529.705322 C 211.94783 519.296387 208.258789 509.041077 204.321869 498.0271 M 204.980377 587.509521 C 196.309647 575.796204 184.515869 567.587097 172.886276 559.271057 C 161.462296 551.102112 151.991684 541.322571 145.182816 528.968201 C 143.126831 525.237671 140.491196 521.826721 138.121078 518.269348 C 137.955811 520.489807 138.491547 522.360718 139.351028 524.068787 C 143.983185 533.274353 148.575882 542.480896 152.736649 551.929565 C 156.132324 559.640869 159.614365 567.621155 165.951126 573.493225 C 169.977341 577.224121 174.052216 580.879883 177.808197 584.890015 C 191.500061 599.508301 208.722443 608.214966 227.451172 614.331299 C 229.161118 614.889832 231.204102 615.752197 233.356003 613.484619 C 222.501587 606.427917 212.333359 598.980042 204.980377 587.509521 M 237.003296 608.006409 C 235.993454 603.353394 232.356934 600.079102 230.667145 595.733215 C 222.123886 573.76123 205.577667 559.218872 185.430191 548.431763 C 177.215912 544.033813 169.738525 539.173218 164.061829 531.642883 C 158.487564 524.248352 150.320602 519.884705 142.459717 513.446777 C 150.748718 530.50531 161.458008 544.023682 175.745255 554.692261 C 191.500336 566.456909 206.867859 578.535828 218.925568 594.492859 C 223.349731 600.347717 229.044739 605.9151 237.003296 608.006409 M 228.94397 699.247009 C 227.106171 701.650269 229.746964 701.871948 230.751114 702.564453 C 237.038086 706.900024 244.355362 708.613159 251.587433 710.572266 C 274.773499 716.852844 299.069305 718.868164 321.237518 729.190674 C 326.4375 731.612122 332.446289 732.820923 339.84079 732.692749 C 332.959839 726.758423 327.36322 721.351135 321.178436 716.73114 C 311.403839 709.429443 300.536774 704.574158 287.942566 705.533203 C 281.587067 706.017151 275.312225 705.585754 269.098297 704.58075 C 255.97789 702.458801 242.860245 700.364868 228.94397 699.247009 M 306.455597 538.979858 C 314.676208 532.298462 317.29184 523.875977 314.765381 513.585815 C 313.207794 507.241974 309.270325 503.872223 302.747955 503.990448 C 296.029907 504.112213 291.426117 508.321075 286.658081 512.210327 C 283.504028 514.783081 281.976685 517.974609 282.180603 522.223816 C 282.443481 527.703247 282.696594 533.171936 283.098816 538.64679 C 283.380768 542.484497 285.262024 544.006775 288.496582 544.581726 C 295.125549 545.759949 301.06601 544.394287 306.455597 538.979858 M 314.11264 452.622467 C 316.196381 450.02533 318.504761 447.575989 320.326721 444.806641 C 330.622589 429.156738 342.765778 415.481506 359.70639 406.680969 C 362.190002 405.390747 364.341705 403.442657 366.590851 401.725403 C 368.810181 400.030945 370.958282 398.243256 373.137573 396.496429 C 372.877502 396.106812 372.617432 395.717224 372.357361 395.327606 C 361.629364 402.85614 349.157562 406.096649 337.117554 410.414825 C 335.112732 411.133911 333.108215 412.216644 331.486542 413.585175 C 315.354614 427.198883 302.128601 443.033661 294.444885 462.983337 C 293.475677 465.499725 292.248291 468.058167 292.812683 471.761261 C 300.303619 465.444885 307.793365 460.244446 314.11264 452.622467 M 242.33786 642.829346 C 237.22171 641.876343 232.100571 641.676636 227.075241 643.225098 C 220.518387 645.245483 218.192123 649.936584 220.417236 656.293945 C 225.559799 670.986755 236.525665 675.141052 250.348923 675.541077 C 256.161804 675.709229 260.658447 670.047119 259.14975 664.743652 C 256.553711 655.618103 252.296463 647.447266 242.33786 642.829346 M 263.445374 389.912781 C 260.726166 396.433838 256.803467 402.504211 254.863159 410.605621 C 256.474365 409.579529 257.04483 409.420746 257.247742 409.056946 C 261.831757 400.837921 265.531006 391.945648 274.306702 386.963196 C 283.796631 371.059113 295.885284 356.765198 300.496552 337.971252 C 304.205383 322.855194 304.131866 308.050568 302.264801 292.916931 C 299.85141 302.453979 298.304993 312.110321 296.228882 321.651428 C 293.410248 334.605164 291.620361 347.977112 282.931671 358.866455 C 275.421204 368.279175 269.234833 378.534943 263.445374 389.912781 M 301.115479 471.685791 C 298.277771 473.873322 294.635406 475.053223 292.547516 478.382812 C 294.474152 479.143555 295.990631 478.168518 297.434906 477.53009 C 305.710266 473.87204 313.379364 469.294708 319.799805 462.772491 C 334.638031 447.698975 347.526489 430.874512 362.19986 415.651855 C 363.859528 413.930054 365.022461 411.72937 367.149689 408.708435 C 362.80954 411.757568 359.808716 414.45575 356.330261 416.203186 C 343.976532 422.409119 335.309937 432.240082 328.005341 443.626984 C 321.024872 454.508698 312.66571 464.145081 301.115479 471.685791 M 251.081116 430.600555 C 250.566757 433.041138 249.130905 435.384338 250.356735 439.329956 C 255.222366 430.11203 257.258636 421.024475 260.966064 412.61673 C 257.36203 418.17337 253.598999 423.612122 251.081116 430.600555 z" stroke-linecap="round"/>
</g>
</svg>